<svg width="71" height="65" viewBox="0 0 71 65" fill="none" xmlns="http://www.w3.org/2000/svg">
<rect x="0.5" y="0.5" width="69.7778" height="64" rx="9.5" fill="#4C63BD" stroke="white"/>
<path fill-rule="evenodd" clip-rule="evenodd" d="M48.0039 43.255H50.002C50.7864 43.255 51.4224 43.8909 51.4224 44.6753C51.4224 45.4598 50.7864 46.0957 50.002 46.0957H48.0039C47.4048 47.9502 45.6642 49.2915 43.6104 49.2915C41.5565 49.2915 39.8159 47.9502 39.2167 46.0957H18.754C17.9695 46.0957 17.3336 45.4598 17.3336 44.6753C17.3336 43.8909 17.9695 43.255 18.754 43.255L39.2167 43.255C39.8159 41.4005 41.5565 40.0591 43.6104 40.0591C45.6642 40.0591 47.4048 41.4005 48.0039 43.255ZM46.096 44.6753C46.096 46.0481 44.9831 47.161 43.6104 47.161C42.2376 47.161 41.1247 46.0481 41.1247 44.6753C41.1247 43.3025 42.2376 42.1897 43.6104 42.1897C44.9831 42.1897 46.096 43.3025 46.096 44.6753Z" fill="white"/>
<path fill-rule="evenodd" clip-rule="evenodd" d="M50.002 31.8922L29.4837 31.8922C28.8846 30.0377 27.1441 28.6963 25.0901 28.6963C23.0362 28.6963 21.2957 30.0377 20.6966 31.8922H18.754C17.9695 31.8922 17.3336 32.5281 17.3336 33.3125C17.3336 34.097 17.9695 34.7329 18.754 34.7329H20.6966C21.2957 36.5873 23.0362 37.9287 25.0901 37.9287C27.1441 37.9287 28.8846 36.5873 29.4837 34.7329L50.002 34.7329C50.7864 34.7329 51.4224 34.097 51.4224 33.3125C51.4224 32.5281 50.7864 31.8922 50.002 31.8922ZM25.0901 35.7982C26.4629 35.7982 27.5757 34.6853 27.5757 33.3125C27.5757 31.9397 26.4629 30.8269 25.0901 30.8269C23.7173 30.8269 22.6044 31.9397 22.6044 33.3125C22.6044 34.6853 23.7173 35.7982 25.0901 35.7982Z" fill="white"/>
<path fill-rule="evenodd" clip-rule="evenodd" d="M50.002 31.8922L29.4837 31.8922C28.8846 30.0377 27.1441 28.6963 25.0901 28.6963C23.0362 28.6963 21.2957 30.0377 20.6966 31.8922H18.754C17.9695 31.8922 17.3336 32.5281 17.3336 33.3125C17.3336 34.097 17.9695 34.7329 18.754 34.7329H20.6966C21.2957 36.5873 23.0362 37.9287 25.0901 37.9287C27.1441 37.9287 28.8846 36.5873 29.4837 34.7329L50.002 34.7329C50.7864 34.7329 51.4224 34.097 51.4224 33.3125C51.4224 32.5281 50.7864 31.8922 50.002 31.8922ZM25.0901 35.7982C26.4629 35.7982 27.5757 34.6853 27.5757 33.3125C27.5757 31.9397 26.4629 30.8269 25.0901 30.8269C23.7173 30.8269 22.6044 31.9397 22.6044 33.3125C22.6044 34.6853 23.7173 35.7982 25.0901 35.7982Z" fill="white"/>
<path fill-rule="evenodd" clip-rule="evenodd" d="M39.4818 20.5289L50.002 20.5289C50.7864 20.5289 51.4224 21.1648 51.4224 21.9492C51.4224 22.7337 50.7864 23.3696 50.002 23.3696L39.4818 23.3696C38.8827 25.224 37.142 26.5654 35.0882 26.5654C33.0343 26.5654 31.2937 25.224 30.6946 23.3696L18.754 23.3696C17.9695 23.3696 17.3336 22.7337 17.3336 21.9492C17.3336 21.1648 17.9695 20.5289 18.754 20.5289L30.6946 20.5289C31.2937 18.6745 33.0343 17.3331 35.0882 17.3331C37.142 17.3331 38.8827 18.6745 39.4818 20.5289ZM37.5738 21.9492C37.5738 23.322 36.461 24.4349 35.0882 24.4349C33.7154 24.4349 32.6025 23.322 32.6025 21.9492C32.6025 20.5765 33.7154 19.4636 35.0882 19.4636C36.461 19.4636 37.5738 20.5765 37.5738 21.9492Z" fill="white"/>
</svg>
