<svg width="21" height="18" viewBox="0 0 21 18" fill="none" xmlns="http://www.w3.org/2000/svg">
<path d="M0 1.27986C0 0.940423 0.110625 0.614885 0.307538 0.374864C0.504451 0.134843 0.771523 0 1.05 0H19.95C20.2285 0 20.4955 0.134843 20.6925 0.374864C20.8894 0.614885 21 0.940423 21 1.27986C21 1.6193 20.8894 1.94484 20.6925 2.18486C20.4955 2.42488 20.2285 2.55973 19.95 2.55973H1.05C0.771523 2.55973 0.504451 2.42488 0.307538 2.18486C0.110625 1.94484 0 1.6193 0 1.27986V1.27986ZM0 9C0 8.66056 0.110625 8.33502 0.307538 8.095C0.504451 7.85498 0.771523 7.72014 1.05 7.72014H19.95C20.2285 7.72014 20.4955 7.85498 20.6925 8.095C20.8894 8.33502 21 8.66056 21 9C21 9.33944 20.8894 9.66498 20.6925 9.905C20.4955 10.145 20.2285 10.2799 19.95 10.2799H1.05C0.771523 10.2799 0.504451 10.145 0.307538 9.905C0.110625 9.66498 0 9.33944 0 9V9ZM1.05 15.4403C0.771523 15.4403 0.504451 15.5751 0.307538 15.8151C0.110625 16.0552 0 16.3807 0 16.7201C0 17.0596 0.110625 17.3851 0.307538 17.6251C0.504451 17.8652 0.771523 18 1.05 18H19.95C20.2285 18 20.4955 17.8652 20.6925 17.6251C20.8894 17.3851 21 17.0596 21 16.7201C21 16.3807 20.8894 16.0552 20.6925 15.8151C20.4955 15.5751 20.2285 15.4403 19.95 15.4403H1.05Z" fill="#130F26"/>
</svg>
