<svg width="98" height="70" viewBox="0 0 98 70" fill="none" xmlns="http://www.w3.org/2000/svg">
<path d="M37.288 46.5601C38.248 45.7601 39.013 45.0951 39.583 44.5651C40.153 44.0251 40.628 43.4651 41.008 42.8851C41.388 42.3051 41.578 41.7351 41.578 41.1751C41.578 40.6651 41.458 40.2651 41.218 39.9751C40.978 39.6851 40.608 39.5401 40.108 39.5401C39.608 39.5401 39.223 39.7101 38.953 40.0501C38.683 40.3801 38.543 40.8351 38.533 41.4151H36.493C36.533 40.2151 36.888 39.3051 37.558 38.6851C38.238 38.0651 39.098 37.7551 40.138 37.7551C41.278 37.7551 42.153 38.0601 42.763 38.6701C43.373 39.2701 43.678 40.0651 43.678 41.0551C43.678 41.8351 43.468 42.5801 43.048 43.2901C42.628 44.0001 42.148 44.6201 41.608 45.1501C41.068 45.6701 40.363 46.3001 39.493 47.0401H43.918V48.7801H36.508V47.2201L37.288 46.5601ZM46.4113 49.0351C46.0313 49.0351 45.7163 48.9201 45.4663 48.6901C45.2263 48.4501 45.1063 48.1551 45.1063 47.8051C45.1063 47.4551 45.2263 47.1651 45.4663 46.9351C45.7163 46.6951 46.0313 46.5751 46.4113 46.5751C46.7813 46.5751 47.0863 46.6951 47.3263 46.9351C47.5663 47.1651 47.6863 47.4551 47.6863 47.8051C47.6863 48.1551 47.5663 48.4501 47.3263 48.6901C47.0863 48.9201 46.7813 49.0351 46.4113 49.0351ZM51.5678 45.8551C51.6478 46.2951 51.8278 46.6351 52.1078 46.8751C52.3978 47.1051 52.7828 47.2201 53.2628 47.2201C53.8828 47.2201 54.3328 46.9651 54.6128 46.4551C54.8928 45.9351 55.0328 45.0651 55.0328 43.8451C54.8028 44.1651 54.4778 44.4151 54.0578 44.5951C53.6478 44.7751 53.2028 44.8651 52.7228 44.8651C52.0828 44.8651 51.5028 44.7351 50.9828 44.4751C50.4728 44.2051 50.0678 43.8101 49.7678 43.2901C49.4678 42.7601 49.3178 42.1201 49.3178 41.3701C49.3178 40.2601 49.6478 39.3801 50.3078 38.7301C50.9678 38.0701 51.8678 37.7401 53.0078 37.7401C54.4278 37.7401 55.4278 38.1951 56.0078 39.1051C56.5978 40.0151 56.8928 41.3851 56.8928 43.2151C56.8928 44.5151 56.7778 45.5801 56.5478 46.4101C56.3278 47.2401 55.9428 47.8701 55.3928 48.3001C54.8528 48.7301 54.1128 48.9451 53.1728 48.9451C52.4328 48.9451 51.8028 48.8051 51.2828 48.5251C50.7628 48.2351 50.3628 47.8601 50.0828 47.4001C49.8128 46.9301 49.6578 46.4151 49.6178 45.8551H51.5678ZM53.1578 43.1551C53.6778 43.1551 54.0878 42.9951 54.3878 42.6751C54.6878 42.3551 54.8378 41.9251 54.8378 41.3851C54.8378 40.7951 54.6778 40.3401 54.3578 40.0201C54.0478 39.6901 53.6228 39.5251 53.0828 39.5251C52.5428 39.5251 52.1128 39.6951 51.7928 40.0351C51.4828 40.3651 51.3278 40.8051 51.3278 41.3551C51.3278 41.8851 51.4778 42.3201 51.7778 42.6601C52.0878 42.9901 52.5478 43.1551 53.1578 43.1551Z" fill="black"/>
<rect x="1.33301" y="17.0967" width="95.8333" height="51.5" rx="1.5" stroke="black" stroke-opacity="0.25"/>
<ellipse cx="49.2497" cy="13.0968" rx="13.4167" ry="12.8333" fill="black"/>
<path d="M46.765 10.0634V8.51543H49.657V17.2634H47.929V10.0634H46.765Z" fill="white"/>
</svg>
