<svg width="15" height="20" viewBox="0 0 15 20" fill="none" xmlns="http://www.w3.org/2000/svg">
<path fill-rule="evenodd" clip-rule="evenodd" d="M7.84438 19C4.39442 19 1.44824 18.4631 1.44824 16.3131C1.44824 14.163 4.37573 12.1782 7.84438 12.1782C11.2943 12.1782 14.2405 14.1438 14.2405 16.2938C14.2405 18.443 11.313 19 7.84438 19Z" stroke="#130F26" stroke-width="1.5" stroke-linecap="round" stroke-linejoin="round"/>
<path fill-rule="evenodd" clip-rule="evenodd" d="M7.83766 9.19885C10.1017 9.19885 11.9367 7.36385 11.9367 5.09985C11.9367 2.83584 10.1017 1 7.83766 1C5.57366 1 3.73782 2.83584 3.73782 5.09985C3.73017 7.35621 5.55242 9.1912 7.80878 9.19885C7.81897 9.19885 7.82832 9.19885 7.83766 9.19885Z" stroke="#130F26" stroke-width="1.5" stroke-linecap="round" stroke-linejoin="round"/>
</svg>
